<?xml version="1.0" encoding="utf-8"?>
<!-- Generator: Adobe Illustrator 19.0.0, SVG Export Plug-In . SVG Version: 6.00 Build 0)  -->
<svg version="1.1" id="Layer_1" xmlns="http://www.w3.org/2000/svg" xmlns:xlink="http://www.w3.org/1999/xlink" x="0px" y="0px"
	 width="89.9" height="81.7" viewBox="0 0 89.9 81.7" style="enable-background:new 0 0 89.9 81.7;" xml:space="preserve">
<path style="fill:currentColor;" d="M75.5,81.7h-61c-6.1,0-10.8-2.2-13.1-6.1c-2.3-3.9-1.8-9,1.2-14.4L33.1,8.3C36.2,3,40.4,0,44.9,0
	s8.7,2.9,11.8,8.3l30.5,52.9c3.1,5.3,3.5,10.4,1.2,14.4C86.3,79.5,81.7,81.7,75.5,81.7z M51.2,63.1c0-3.2-2.6-5.7-5.7-5.7
	c-3.2,0-5.7,2.6-5.7,5.7s2.6,5.7,5.7,5.7C48.7,68.8,51.2,66.3,51.2,63.1z M51.4,28.5c0-3.3-2.6-5.9-5.9-5.9s-5.9,2.6-5.9,5.9
	L41,49.4l0,0c0.2,2.3,2.1,4.1,4.5,4.1c2.2,0,4-1.6,4.4-3.6c0-0.2,0-0.3,0.1-0.5l0,0L51.4,28.5z"/>
</svg>
